<?xml version="1.0" encoding="UTF-8"?><svg id="b" xmlns="http://www.w3.org/2000/svg" viewBox="0 0 24 24"><g id="c"><g id="d"><path d="M7.28,10.05h-.7v1.97h.73c.86,0,1.27-.33,1.27-1.03s-.44-.94-1.29-.94h0Z" fill="#fff"/><path d="M11.77,10.06h-.48v3.98h.48c1.15,0,1.76-.68,1.76-2.01s-.62-1.97-1.76-1.97Z" fill="#fff"/><path d="M2,6.24v11.52h20V6.24H2ZM7.39,12.7h-.81v2.03h-.84v-5.36h1.62c1.19,0,2.04.41,2.04,1.62s-.85,1.71-2.01,1.71ZM11.87,14.73h-1.43v-5.36h1.39c1.64,0,2.58.92,2.58,2.66s-.94,2.7-2.54,2.7ZM18.69,10.08h-2.33v1.64h1.98v.7h-1.98v2.3h-.84v-5.36h3.17v.71h0Z" fill="#fff"/></g><rect width="24" height="24" fill="none"/></g></svg>