<?xml version="1.0" encoding="UTF-8"?><svg id="b" xmlns="http://www.w3.org/2000/svg" viewBox="0 0 33 19"><g id="c"><path d="M8.71,6.29h-1.15v3.25h1.2c1.42,0,2.09-.54,2.09-1.7s-.73-1.55-2.13-1.55Z" fill="#131519" stroke-width="0"/><path d="M16.12,6.3h-.8v6.56h.8c1.89,0,2.91-1.12,2.91-3.31s-1.02-3.25-2.91-3.25Z" fill="#131519" stroke-width="0"/><path d="M0,0v19h33V0H0ZM8.89,10.65h-1.33v3.35h-1.39V5.16h2.67c1.97,0,3.37.68,3.37,2.67s-1.4,2.82-3.32,2.82ZM16.29,14h-2.36V5.16h2.29c2.71,0,4.26,1.51,4.26,4.39s-1.55,4.45-4.19,4.45ZM27.54,6.34h-3.84v2.7h3.26v1.16h-3.26v3.8h-1.39V5.16h5.23v1.17Z" fill="#131519" stroke-width="0"/></g></svg>